<svg width="800" height="600" xmlns="http://www.w3.org/2000/svg">
 <g id="Layer_1">
  <title>Layer 1</title>
  <g>
   <path d="m608,492l-416,0c-26.51,0 -48,-21.49 -48,-48l0,-288c0,-26.51 21.49,-48 48,-48l416,0c26.51,0 48,21.49 48,48l0,288c0,26.51 -21.49,48 -48,48zm-352,-328c-30.928,0 -56,25.072 -56,56s25.072,56 56,56s56,-25.072 56,-56s-25.072,-56 -56,-56zm-48,264l384,0l0,-112l-87.515,-87.515c-4.686,-4.686 -12.284,-4.686 -16.971,0l-135.514,135.515l-55.515,-55.515c-4.686,-4.686 -12.284,-4.686 -16.971,0l-71.514,71.515l0,48z" fill="#ffffff"/>
  </g>
 </g>

</svg>